<?xml version="1.0" encoding="UTF-8" standalone="no"?>
<svg
   xmlns:dc="http://purl.org/dc/elements/1.1/"
   xmlns:cc="http://creativecommons.org/ns#"
   xmlns:rdf="http://www.w3.org/1999/02/22-rdf-syntax-ns#"
   xmlns:svg="http://www.w3.org/2000/svg"
   xmlns="http://www.w3.org/2000/svg"
   xmlns:sodipodi="http://sodipodi.sourceforge.net/DTD/sodipodi-0.dtd"
   xmlns:inkscape="http://www.inkscape.org/namespaces/inkscape"
   viewBox="0 0 341.8092 346.07998"
   height="346.07999"
   width="341.8092"
   xml:space="preserve"
   id="svg2"
   version="1.1"
   inkscape:version="0.91 r13725"
   sodipodi:docname="Logo_margoM.svg"><sodipodi:namedview
     pagecolor="#ffffff"
     bordercolor="#666666"
     borderopacity="1"
     objecttolerance="10"
     gridtolerance="10"
     guidetolerance="10"
     inkscape:pageopacity="0"
     inkscape:pageshadow="2"
     inkscape:window-width="1278"
     inkscape:window-height="1378"
     id="namedview67"
     showgrid="false"
     inkscape:zoom="1.5723825"
     inkscape:cx="191.87925"
     inkscape:cy="127.41847"
     inkscape:window-x="1273"
     inkscape:window-y="0"
     inkscape:window-maximized="0"
     inkscape:current-layer="svg2"
     units="px"
     fit-margin-top="0"
     fit-margin-left="0"
     fit-margin-right="0"
     fit-margin-bottom="0" /><metadata
     id="metadata8"><rdf:RDF><cc:Work
         rdf:about=""><dc:format>image/svg+xml</dc:format><dc:type
           rdf:resource="http://purl.org/dc/dcmitype/StillImage" /><dc:title></dc:title></cc:Work></rdf:RDF></metadata><defs
     id="defs6"><clipPath
       id="clipPath32"
       clipPathUnits="userSpaceOnUse"><path
         id="path30"
         d="M 0,841.89 1190.55,841.89 1190.55,0 0,0 Z"
         inkscape:connector-curvature="0" /></clipPath></defs><g
     transform="matrix(1.3333333,0,0,-1.3333333,-175.44813,974.27331)"
     id="g10"><path
       id="path12"
       style="fill:#1d1d1b;fill-opacity:1;fill-rule:nonzero;stroke:none"
       d="M 202.123,474.145 384.944,474.145 384.944,727.705 202.123,727.705 Z M 387.943,471.145 199.122,471.145 199.122,730.705 387.943,730.705 Z"
       inkscape:connector-curvature="0" /><g
       transform="translate(365.0547,547.601)"
       id="g14"><path
         id="path16"
         style="fill:#000000;fill-opacity:1;fill-rule:nonzero;stroke:none"
         d="M 0,0 0,-52.167 -11.7,-52.167 -11.7,-20.569 -19.078,-34.355 -21.314,-34.355 -28.692,-20.569 -28.692,-52.167 -40.392,-52.167 -40.392,0 -29.884,0 -20.196,-17.886 -10.508,0 Z"
         inkscape:connector-curvature="0" /></g><g
       transform="translate(191.5371,507.5609)"
       id="g18"><path
         id="path20"
         style="fill:#000000;fill-opacity:1;fill-rule:nonzero;stroke:none"
         d="M 0,0 112.975,0 169.462,97.839 112.975,195.678 0,195.678 -56.487,97.839 Z M 114.707,-3 -1.732,-3 -59.951,97.839 -1.732,198.678 114.707,198.678 172.927,97.839 172.493,97.089 Z"
         inkscape:connector-curvature="0" /></g></g></svg>