<?xml version="1.0" encoding="UTF-8" standalone="no"?>
<svg
   xmlns:dc="http://purl.org/dc/elements/1.1/"
   xmlns:cc="http://creativecommons.org/ns#"
   xmlns:rdf="http://www.w3.org/1999/02/22-rdf-syntax-ns#"
   xmlns:svg="http://www.w3.org/2000/svg"
   xmlns="http://www.w3.org/2000/svg"
   xml:space="preserve"
   style="enable-background:new 0 0 124.4 131.5;"
   viewBox="0 0 124.4 131.5"
   y="0px"
   x="0px"
   id="Layer_1"
   version="1.1"><metadata
     id="metadata39"><rdf:RDF><cc:Work
         rdf:about=""><dc:format>image/svg+xml</dc:format><dc:type
           rdf:resource="http://purl.org/dc/dcmitype/StillImage" /><dc:title></dc:title></cc:Work></rdf:RDF></metadata><defs
     id="defs37" /><style
     id="style3"
     type="text/css">
	.st0{fill:#FFFFFF;stroke:#1D1D1B;stroke-width:0.75;stroke-miterlimit:10;}
	.st1{fill:none;stroke:#1D1D1B;stroke-width:0.75;stroke-miterlimit:10;}
	.st2{fill:none;}
</style><g
     id="margoSquare"><g
       id="g13"><path
         d="M 10.3,0.2 10.3,13.6 7.3,13.6 7.3,5.5 5.5,9 4.9,9 3,5.5 3,13.6 0,13.6 0,0.2 2.7,0.2 5.2,4.8 7.7,0.2 10.3,0.2 Z"
         id="path15" /></g><g
       id="g17"><path
         d="M 124.3,6 124.3,13.6 121.8,13.6 121.8,11.8 C 121.4,13 120.5,13.8 118.7,13.8 115.5,13.8 113.5,11.3 113.5,6.9 113.5,2.5 115.5,0 119,0 121.9,0 123.8,1.7 124.2,4.6 L 121.1,4.6 C 120.9,3.2 120.2,2.6 119,2.6 117.3,2.6 116.4,4 116.4,6.9 116.4,9.8 117.2,11.2 118.9,11.2 120.3,11.2 121.1,10.3 121.2,8.5 L 118.8,8.5 118.8,6 124.3,6 Z"
         id="path19" /></g><g
       id="g21"><path
         d="M 7.3,131.3 5,125.9 3.2,125.9 3.2,131.3 0.2,131.3 0.2,117.9 5.6,117.9 C 8.4,117.9 10.4,119.4 10.4,121.8 10.4,123.6 9.3,124.9 7.7,125.5 L 10.5,131.2 7.3,131.2 Z M 3.2,123.5 5.6,123.5 C 6.8,123.5 7.5,122.8 7.5,121.8 7.5,120.9 6.7,120.3 5.6,120.3 L 3.2,120.3 3.2,123.5 Z"
         id="path23" /></g><g
       id="g25"><path
         d="M 124.4,124.6 C 124.4,128.9 122.5,131.5 118.9,131.5 115.3,131.5 113.4,128.9 113.4,124.6 113.4,120.3 115.3,117.7 118.9,117.7 122.5,117.7 124.4,120.3 124.4,124.6 Z M 116.5,124.6 C 116.5,127.4 117.1,128.9 118.9,128.9 120.6,128.9 121.3,127.4 121.3,124.6 121.3,121.7 120.7,120.2 118.9,120.2 117.1,120.2 116.5,121.7 116.5,124.6 Z"
         id="path27" /></g><g
       id="g29"><path
         d="M 65.7,64.5 61.4,64.5 60.8,66.9 57.8,66.9 61.6,53.5 65.4,53.5 69.2,66.9 66.2,66.9 65.7,64.5 Z M 65.1,62.1 63.6,56.4 62.1,62.1 65.1,62.1 Z"
         id="path31" /></g></g></svg>