<?xml version="1.0" encoding="UTF-8" standalone="no"?>
<svg
   xmlns:dc="http://purl.org/dc/elements/1.1/"
   xmlns:cc="http://creativecommons.org/ns#"
   xmlns:rdf="http://www.w3.org/1999/02/22-rdf-syntax-ns#"
   xmlns:svg="http://www.w3.org/2000/svg"
   xmlns="http://www.w3.org/2000/svg"
   viewBox="0 0 19.052759 56.66356"
   height="56.663559"
   width="19.052759"
   xml:space="preserve"
   id="svg2"
   version="1.1"><metadata
     id="metadata8"><rdf:RDF><cc:Work
         rdf:about=""><dc:format>image/svg+xml</dc:format><dc:type
           rdf:resource="http://purl.org/dc/dcmitype/StillImage" /><dc:title></dc:title></cc:Work></rdf:RDF></metadata><defs
     id="defs6"><clipPath
       id="clipPath18"
       clipPathUnits="userSpaceOnUse"><path
         id="path16"
         d="M 0,102.743 42.869,102.743 42.869,0 0,0 Z" /></clipPath></defs><g
     id="g12"
     transform="matrix(0.44444502,0,0,-0.44444502,2.3792771e-4,55.918468)"><g
       id="mouse"
       transform="translate(3.6929,90.10487)"><path
         d="M 0,0 0.008,0 C 0.008,-5.37 -0.026,-10.741 0.016,-16.111 0.071,-23.032 4.54,-28.992 11.296,-30.569 14.157,-31.237 17.23,-31.146 20.206,-31.131 28.621,-31.087 35.259,-24.64 35.365,-16.232 35.501,-5.411 35.482,5.414 35.375,16.236 35.3,23.742 30.106,29.812 22.772,31.039 20.45,31.428 18.032,31.329 15.659,31.306 6.438,31.216 0.023,24.716 0.002,15.497 -0.01,10.332 0,5.166 0,0 M 39.166,-0.014 C 39.166,-5.263 39.17,-10.512 39.165,-15.761 39.152,-26.544 30.755,-34.97 19.988,-34.981 16.756,-34.985 13.513,-35.171 10.333,-34.29 2.179,-32.029 -3.61,-24.616 -3.651,-16.142 -3.704,-5.275 -3.71,5.593 -3.648,16.46 -3.591,26.554 4.765,34.949 14.842,35.081 18.315,35.127 21.804,35.355 25.233,34.409 33.267,32.191 39.072,24.791 39.15,16.472 39.202,10.978 39.16,5.481 39.16,-0.014 Z"
         style="fill:#231f20;fill-opacity:1;fill-rule:nonzero;stroke:none"
         id="path22" /></g><g
       id="mouseArrow"
       transform="translate(19.5293,30.332799)"><path
         d="M 0,0 C 0,2.856 0,5.759 0,8.661 -0.001,11.08 -0.009,13.498 -0.002,15.916 0.001,17.508 0.694,18.422 1.885,18.444 3.077,18.468 3.816,17.55 3.819,15.968 3.83,11.214 3.823,6.459 3.823,1.704 L 3.823,-0.096 C 4.216,0.209 4.472,0.368 4.68,0.574 6.223,2.104 7.745,3.654 9.296,5.175 10.278,6.137 11.46,6.231 12.239,5.463 13.053,4.66 12.966,3.563 11.964,2.555 9.16,-0.265 6.351,-3.077 3.529,-5.879 2.347,-7.053 1.452,-7.038 0.272,-5.861 -2.515,-3.084 -5.298,-0.302 -8.078,2.483 -9.132,3.54 -9.245,4.655 -8.4,5.482 -7.53,6.335 -6.522,6.184 -5.403,5.106 -3.638,3.407 -1.843,1.738 0,0"
         style="fill:#231f20;fill-opacity:1;fill-rule:nonzero;stroke:none"
         id="path26" /></g><g
       id="mouseScroll"
       transform="translate(23.3516,79.687)"><path
         d="M 0,0 C 0,-2.092 0.014,-4.184 -0.005,-6.274 -0.019,-7.718 -0.824,-8.649 -1.967,-8.61 -3.07,-8.573 -3.813,-7.676 -3.817,-6.289 -3.831,-2.065 -3.833,2.158 -3.819,6.383 -3.814,7.749 -3.034,8.631 -1.91,8.634 -0.756,8.638 -0.019,7.81 -0.002,6.397 0.023,4.265 0.004,2.132 0.004,0 Z"
         style="fill:#231f20;fill-opacity:1;fill-rule:nonzero;stroke:none"
         id="path30" /></g></g></svg>